# Tiled2Unity generated file. Do not modify by hand.
# Wavefront file for 'Map001_mesh_0006.obj'

# Vertices (Count = 40)
v -3392 -1408 0
v -3456 -1408 0
v -3456 -1344 0
v -3392 -1344 0
v -3328 -1408 0
v -3392 -1408 0
v -3392 -1344 0
v -3328 -1344 0
v -3456 -1472 0
v -3520 -1472 0
v -3520 -1408 0
v -3456 -1408 0
v -3392 -1472 0
v -3456 -1472 0
v -3456 -1408 0
v -3392 -1408 0
v -3328 -1472 0
v -3392 -1472 0
v -3392 -1408 0
v -3328 -1408 0
v -3264 -1472 0
v -3328 -1472 0
v -3328 -1408 0
v -3264 -1408 0
v -3456 -1536 0
v -3520 -1536 0
v -3520 -1472 0
v -3456 -1472 0
v -3392 -1536 0
v -3456 -1536 0
v -3456 -1472 0
v -3392 -1472 0
v -3328 -1536 0
v -3392 -1536 0
v -3392 -1472 0
v -3328 -1472 0
v -3264 -1536 0
v -3328 -1536 0
v -3328 -1472 0
v -3264 -1472 0

# Texture cooridinates (Count = 16)
vt 0.8751221 0.2501221
vt 0.9998779 0.2501221
vt 0.9998779 0.4998779
vt 0.8751221 0.4998779
vt 0.7501221 0.5001221
vt 0.8748779 0.5001221
vt 0.8748779 0.7498779
vt 0.7501221 0.7498779
vt 0.8751221 0.0001220703
vt 0.9998779 0.0001220703
vt 0.9998779 0.2498779
vt 0.8751221 0.2498779
vt 0.7501221 0.2501221
vt 0.8748779 0.2501221
vt 0.8748779 0.4998779
vt 0.7501221 0.4998779

# Normal
vn 0 0 -1

# Mesh description
g Map001_mesh_0006

# Faces
f 1/1/1 2/2/1 3/3/1 4/4/1
f 5/1/1 6/2/1 7/3/1 8/4/1
f 9/5/1 10/6/1 11/7/1 12/8/1
f 13/1/1 14/2/1 15/3/1 16/4/1
f 17/1/1 18/2/1 19/3/1 20/4/1
f 21/9/1 22/10/1 23/11/1 24/12/1
f 25/5/1 26/6/1 27/7/1 28/8/1
f 29/13/1 30/14/1 31/15/1 32/16/1
f 33/13/1 34/14/1 35/15/1 36/16/1
f 37/9/1 38/10/1 39/11/1 40/12/1

