# Tiled2Unity generated file. Do not modify by hand.
# Wavefront file for 'Map001_mesh_0005.obj'

# Vertices (Count = 56)
v -4544 -640 0
v -4608 -640 0
v -4608 -576 0
v -4544 -576 0
v -4480 -640 0
v -4544 -640 0
v -4544 -576 0
v -4480 -576 0
v -4608 -704 0
v -4672 -704 0
v -4672 -640 0
v -4608 -640 0
v -4544 -704 0
v -4608 -704 0
v -4608 -640 0
v -4544 -640 0
v -4480 -704 0
v -4544 -704 0
v -4544 -640 0
v -4480 -640 0
v -4416 -704 0
v -4480 -704 0
v -4480 -640 0
v -4416 -640 0
v -4608 -768 0
v -4672 -768 0
v -4672 -704 0
v -4608 -704 0
v -4544 -768 0
v -4608 -768 0
v -4608 -704 0
v -4544 -704 0
v -4480 -768 0
v -4544 -768 0
v -4544 -704 0
v -4480 -704 0
v -4416 -768 0
v -4480 -768 0
v -4480 -704 0
v -4416 -704 0
v -4608 -832 0
v -4672 -832 0
v -4672 -768 0
v -4608 -768 0
v -4544 -832 0
v -4608 -832 0
v -4608 -768 0
v -4544 -768 0
v -4480 -832 0
v -4544 -832 0
v -4544 -768 0
v -4480 -768 0
v -4416 -832 0
v -4480 -832 0
v -4480 -768 0
v -4416 -768 0

# Texture cooridinates (Count = 16)
vt 0.1251221 0.5001221
vt 0.2498779 0.5001221
vt 0.2498779 0.7498779
vt 0.1251221 0.7498779
vt 0.0001220703 0.7501221
vt 0.1248779 0.7501221
vt 0.1248779 0.9998779
vt 0.0001220703 0.9998779
vt 0.1251221 0.2501221
vt 0.2498779 0.2501221
vt 0.2498779 0.4998779
vt 0.1251221 0.4998779
vt 0.0001220703 0.5001221
vt 0.1248779 0.5001221
vt 0.1248779 0.7498779
vt 0.0001220703 0.7498779

# Normal
vn 0 0 -1

# Mesh description
g Map001_mesh_0005

# Faces
f 1/1/1 2/2/1 3/3/1 4/4/1
f 5/1/1 6/2/1 7/3/1 8/4/1
f 9/5/1 10/6/1 11/7/1 12/8/1
f 13/1/1 14/2/1 15/3/1 16/4/1
f 17/1/1 18/2/1 19/3/1 20/4/1
f 21/9/1 22/10/1 23/11/1 24/12/1
f 25/5/1 26/6/1 27/7/1 28/8/1
f 29/1/1 30/2/1 31/3/1 32/4/1
f 33/1/1 34/2/1 35/3/1 36/4/1
f 37/9/1 38/10/1 39/11/1 40/12/1
f 41/5/1 42/6/1 43/7/1 44/8/1
f 45/13/1 46/14/1 47/15/1 48/16/1
f 49/13/1 50/14/1 51/15/1 52/16/1
f 53/9/1 54/10/1 55/11/1 56/12/1

