# Tiled2Unity generated file. Do not modify by hand.
# Wavefront file for 'Map004_mesh_0006.obj'

# Vertices (Count = 8)
v -448 -512 0
v -512 -512 0
v -512 -448 0
v -448 -448 0
v -448 -576 0
v -512 -576 0
v -512 -512 0
v -448 -512 0

# Texture cooridinates (Count = 8)
vt 0.0001220703 0.8751221
vt 0.1248779 0.8751221
vt 0.1248779 0.9998779
vt 0.0001220703 0.9998779
vt 0.0001220703 0.7501221
vt 0.1248779 0.7501221
vt 0.1248779 0.8748779
vt 0.0001220703 0.8748779

# Normal
vn 0 0 -1

# Mesh description
g Map004_mesh_0006

# Faces
f 1/1/1 2/2/1 3/3/1 4/4/1
f 5/5/1 6/6/1 7/7/1 8/8/1

