# Tiled2Unity generated file. Do not modify by hand.
# Wavefront file for 'Map004_mesh_0007.obj'

# Vertices (Count = 8)
v -448 -1024 0
v -512 -1024 0
v -512 -960 0
v -448 -960 0
v -384 -1024 0
v -448 -1024 0
v -448 -960 0
v -384 -960 0

# Texture cooridinates (Count = 8)
vt 0.0001220703 0.6667887
vt 0.1248779 0.6667887
vt 0.1248779 0.9998779
vt 0.0001220703 0.9998779
vt 0.1251221 0.0001220703
vt 0.2498779 0.0001220703
vt 0.2498779 0.3332112
vt 0.1251221 0.3332112

# Normal
vn 0 0 -1

# Mesh description
g Map004_mesh_0007

# Faces
f 1/1/1 2/2/1 3/3/1 4/4/1
f 5/5/1 6/6/1 7/7/1 8/8/1

