# Tiled2Unity generated file. Do not modify by hand.
# Wavefront file for 'Map004_mesh_0004.obj'

# Vertices (Count = 312)
v -2368 -192 0
v -2432 -192 0
v -2432 -128 0
v -2368 -128 0
v -2304 -192 0
v -2368 -192 0
v -2368 -128 0
v -2304 -128 0
v -2240 -192 0
v -2304 -192 0
v -2304 -128 0
v -2240 -128 0
v -2176 -192 0
v -2240 -192 0
v -2240 -128 0
v -2176 -128 0
v -2112 -192 0
v -2176 -192 0
v -2176 -128 0
v -2112 -128 0
v -2048 -192 0
v -2112 -192 0
v -2112 -128 0
v -2048 -128 0
v -1984 -192 0
v -2048 -192 0
v -2048 -128 0
v -1984 -128 0
v -1920 -192 0
v -1984 -192 0
v -1984 -128 0
v -1920 -128 0
v -1856 -192 0
v -1920 -192 0
v -1920 -128 0
v -1856 -128 0
v -1792 -192 0
v -1856 -192 0
v -1856 -128 0
v -1792 -128 0
v -1728 -192 0
v -1792 -192 0
v -1792 -128 0
v -1728 -128 0
v -1664 -192 0
v -1728 -192 0
v -1728 -128 0
v -1664 -128 0
v -1600 -192 0
v -1664 -192 0
v -1664 -128 0
v -1600 -128 0
v -1536 -192 0
v -1600 -192 0
v -1600 -128 0
v -1536 -128 0
v -1472 -192 0
v -1536 -192 0
v -1536 -128 0
v -1472 -128 0
v -1408 -192 0
v -1472 -192 0
v -1472 -128 0
v -1408 -128 0
v -1344 -192 0
v -1408 -192 0
v -1408 -128 0
v -1344 -128 0
v -1280 -192 0
v -1344 -192 0
v -1344 -128 0
v -1280 -128 0
v -1216 -192 0
v -1280 -192 0
v -1280 -128 0
v -1216 -128 0
v -1152 -192 0
v -1216 -192 0
v -1216 -128 0
v -1152 -128 0
v -1088 -192 0
v -1152 -192 0
v -1152 -128 0
v -1088 -128 0
v -1024 -192 0
v -1088 -192 0
v -1088 -128 0
v -1024 -128 0
v -960 -192 0
v -1024 -192 0
v -1024 -128 0
v -960 -128 0
v -896 -192 0
v -960 -192 0
v -960 -128 0
v -896 -128 0
v -832 -192 0
v -896 -192 0
v -896 -128 0
v -832 -128 0
v -768 -192 0
v -832 -192 0
v -832 -128 0
v -768 -128 0
v -704 -192 0
v -768 -192 0
v -768 -128 0
v -704 -128 0
v -640 -192 0
v -704 -192 0
v -704 -128 0
v -640 -128 0
v -2368 -256 0
v -2432 -256 0
v -2432 -192 0
v -2368 -192 0
v -640 -256 0
v -704 -256 0
v -704 -192 0
v -640 -192 0
v -2368 -320 0
v -2432 -320 0
v -2432 -256 0
v -2368 -256 0
v -640 -320 0
v -704 -320 0
v -704 -256 0
v -640 -256 0
v -2368 -384 0
v -2432 -384 0
v -2432 -320 0
v -2368 -320 0
v -640 -384 0
v -704 -384 0
v -704 -320 0
v -640 -320 0
v -2368 -448 0
v -2432 -448 0
v -2432 -384 0
v -2368 -384 0
v -640 -448 0
v -704 -448 0
v -704 -384 0
v -640 -384 0
v -2368 -512 0
v -2432 -512 0
v -2432 -448 0
v -2368 -448 0
v -640 -512 0
v -704 -512 0
v -704 -448 0
v -640 -448 0
v -2368 -576 0
v -2432 -576 0
v -2432 -512 0
v -2368 -512 0
v -640 -576 0
v -704 -576 0
v -704 -512 0
v -640 -512 0
v -2368 -640 0
v -2432 -640 0
v -2432 -576 0
v -2368 -576 0
v -640 -640 0
v -704 -640 0
v -704 -576 0
v -640 -576 0
v -2368 -704 0
v -2432 -704 0
v -2432 -640 0
v -2368 -640 0
v -640 -704 0
v -704 -704 0
v -704 -640 0
v -640 -640 0
v -2368 -768 0
v -2432 -768 0
v -2432 -704 0
v -2368 -704 0
v -640 -768 0
v -704 -768 0
v -704 -704 0
v -640 -704 0
v -2368 -832 0
v -2432 -832 0
v -2432 -768 0
v -2368 -768 0
v -640 -832 0
v -704 -832 0
v -704 -768 0
v -640 -768 0
v -2368 -896 0
v -2432 -896 0
v -2432 -832 0
v -2368 -832 0
v -640 -896 0
v -704 -896 0
v -704 -832 0
v -640 -832 0
v -2368 -960 0
v -2432 -960 0
v -2432 -896 0
v -2368 -896 0
v -640 -960 0
v -704 -960 0
v -704 -896 0
v -640 -896 0
v -2368 -1024 0
v -2432 -1024 0
v -2432 -960 0
v -2368 -960 0
v -640 -1024 0
v -704 -1024 0
v -704 -960 0
v -640 -960 0
v -2368 -1088 0
v -2432 -1088 0
v -2432 -1024 0
v -2368 -1024 0
v -2304 -1088 0
v -2368 -1088 0
v -2368 -1024 0
v -2304 -1024 0
v -2240 -1088 0
v -2304 -1088 0
v -2304 -1024 0
v -2240 -1024 0
v -2176 -1088 0
v -2240 -1088 0
v -2240 -1024 0
v -2176 -1024 0
v -2112 -1088 0
v -2176 -1088 0
v -2176 -1024 0
v -2112 -1024 0
v -2048 -1088 0
v -2112 -1088 0
v -2112 -1024 0
v -2048 -1024 0
v -1984 -1088 0
v -2048 -1088 0
v -2048 -1024 0
v -1984 -1024 0
v -1920 -1088 0
v -1984 -1088 0
v -1984 -1024 0
v -1920 -1024 0
v -1856 -1088 0
v -1920 -1088 0
v -1920 -1024 0
v -1856 -1024 0
v -1792 -1088 0
v -1856 -1088 0
v -1856 -1024 0
v -1792 -1024 0
v -1728 -1088 0
v -1792 -1088 0
v -1792 -1024 0
v -1728 -1024 0
v -1664 -1088 0
v -1728 -1088 0
v -1728 -1024 0
v -1664 -1024 0
v -1600 -1088 0
v -1664 -1088 0
v -1664 -1024 0
v -1600 -1024 0
v -1536 -1088 0
v -1600 -1088 0
v -1600 -1024 0
v -1536 -1024 0
v -1472 -1088 0
v -1536 -1088 0
v -1536 -1024 0
v -1472 -1024 0
v -1408 -1088 0
v -1472 -1088 0
v -1472 -1024 0
v -1408 -1024 0
v -1344 -1088 0
v -1408 -1088 0
v -1408 -1024 0
v -1344 -1024 0
v -1280 -1088 0
v -1344 -1088 0
v -1344 -1024 0
v -1280 -1024 0
v -1216 -1088 0
v -1280 -1088 0
v -1280 -1024 0
v -1216 -1024 0
v -1152 -1088 0
v -1216 -1088 0
v -1216 -1024 0
v -1152 -1024 0
v -1088 -1088 0
v -1152 -1088 0
v -1152 -1024 0
v -1088 -1024 0
v -768 -1088 0
v -832 -1088 0
v -832 -1024 0
v -768 -1024 0
v -704 -1088 0
v -768 -1088 0
v -768 -1024 0
v -704 -1024 0
v -640 -1088 0
v -704 -1088 0
v -704 -1024 0
v -640 -1024 0

# Texture cooridinates (Count = 28)
vt 0.0001220703 0.0001220703
vt 0.2498779 0.0001220703
vt 0.2498779 0.2498779
vt 0.0001220703 0.2498779
vt 0.7501221 0.7501221
vt 0.9998779 0.7501221
vt 0.9998779 0.9998779
vt 0.7501221 0.9998779
vt 0.7501221 0.2501221
vt 0.9998779 0.2501221
vt 0.9998779 0.4998779
vt 0.7501221 0.4998779
vt 0.0001220703 0.2501221
vt 0.2498779 0.2501221
vt 0.2498779 0.4998779
vt 0.0001220703 0.4998779
vt 0.0001220703 0.5001221
vt 0.2498779 0.5001221
vt 0.2498779 0.7498779
vt 0.0001220703 0.7498779
vt 0.0001220703 0.7501221
vt 0.2498779 0.7501221
vt 0.2498779 0.9998779
vt 0.0001220703 0.9998779
vt 0.7501221 0.0001220703
vt 0.9998779 0.0001220703
vt 0.9998779 0.2498779
vt 0.7501221 0.2498779

# Normal
vn 0 0 -1

# Mesh description
g Map004_mesh_0004

# Faces
f 1/1/1 2/2/1 3/3/1 4/4/1
f 5/5/1 6/6/1 7/7/1 8/8/1
f 9/5/1 10/6/1 11/7/1 12/8/1
f 13/5/1 14/6/1 15/7/1 16/8/1
f 17/5/1 18/6/1 19/7/1 20/8/1
f 21/5/1 22/6/1 23/7/1 24/8/1
f 25/5/1 26/6/1 27/7/1 28/8/1
f 29/5/1 30/6/1 31/7/1 32/8/1
f 33/5/1 34/6/1 35/7/1 36/8/1
f 37/5/1 38/6/1 39/7/1 40/8/1
f 41/5/1 42/6/1 43/7/1 44/8/1
f 45/5/1 46/6/1 47/7/1 48/8/1
f 49/5/1 50/6/1 51/7/1 52/8/1
f 53/5/1 54/6/1 55/7/1 56/8/1
f 57/5/1 58/6/1 59/7/1 60/8/1
f 61/5/1 62/6/1 63/7/1 64/8/1
f 65/5/1 66/6/1 67/7/1 68/8/1
f 69/5/1 70/6/1 71/7/1 72/8/1
f 73/5/1 74/6/1 75/7/1 76/8/1
f 77/5/1 78/6/1 79/7/1 80/8/1
f 81/5/1 82/6/1 83/7/1 84/8/1
f 85/5/1 86/6/1 87/7/1 88/8/1
f 89/5/1 90/6/1 91/7/1 92/8/1
f 93/5/1 94/6/1 95/7/1 96/8/1
f 97/5/1 98/6/1 99/7/1 100/8/1
f 101/5/1 102/6/1 103/7/1 104/8/1
f 105/5/1 106/6/1 107/7/1 108/8/1
f 109/9/1 110/10/1 111/11/1 112/12/1
f 113/13/1 114/14/1 115/15/1 116/16/1
f 117/13/1 118/14/1 119/15/1 120/16/1
f 121/13/1 122/14/1 123/15/1 124/16/1
f 125/13/1 126/14/1 127/15/1 128/16/1
f 129/13/1 130/14/1 131/15/1 132/16/1
f 133/13/1 134/14/1 135/15/1 136/16/1
f 137/13/1 138/14/1 139/15/1 140/16/1
f 141/13/1 142/14/1 143/15/1 144/16/1
f 145/13/1 146/14/1 147/15/1 148/16/1
f 149/13/1 150/14/1 151/15/1 152/16/1
f 153/13/1 154/14/1 155/15/1 156/16/1
f 157/13/1 158/14/1 159/15/1 160/16/1
f 161/13/1 162/14/1 163/15/1 164/16/1
f 165/13/1 166/14/1 167/15/1 168/16/1
f 169/13/1 170/14/1 171/15/1 172/16/1
f 173/13/1 174/14/1 175/15/1 176/16/1
f 177/13/1 178/14/1 179/15/1 180/16/1
f 181/13/1 182/14/1 183/15/1 184/16/1
f 185/13/1 186/14/1 187/15/1 188/16/1
f 189/13/1 190/14/1 191/15/1 192/16/1
f 193/13/1 194/14/1 195/15/1 196/16/1
f 197/13/1 198/14/1 199/15/1 200/16/1
f 201/13/1 202/14/1 203/15/1 204/16/1
f 205/13/1 206/14/1 207/15/1 208/16/1
f 209/13/1 210/14/1 211/15/1 212/16/1
f 213/13/1 214/14/1 215/15/1 216/16/1
f 217/17/1 218/18/1 219/19/1 220/20/1
f 221/21/1 222/22/1 223/23/1 224/24/1
f 225/21/1 226/22/1 227/23/1 228/24/1
f 229/21/1 230/22/1 231/23/1 232/24/1
f 233/21/1 234/22/1 235/23/1 236/24/1
f 237/21/1 238/22/1 239/23/1 240/24/1
f 241/21/1 242/22/1 243/23/1 244/24/1
f 245/21/1 246/22/1 247/23/1 248/24/1
f 249/21/1 250/22/1 251/23/1 252/24/1
f 253/21/1 254/22/1 255/23/1 256/24/1
f 257/21/1 258/22/1 259/23/1 260/24/1
f 261/21/1 262/22/1 263/23/1 264/24/1
f 265/21/1 266/22/1 267/23/1 268/24/1
f 269/21/1 270/22/1 271/23/1 272/24/1
f 273/21/1 274/22/1 275/23/1 276/24/1
f 277/21/1 278/22/1 279/23/1 280/24/1
f 281/21/1 282/22/1 283/23/1 284/24/1
f 285/21/1 286/22/1 287/23/1 288/24/1
f 289/21/1 290/22/1 291/23/1 292/24/1
f 293/21/1 294/22/1 295/23/1 296/24/1
f 297/21/1 298/22/1 299/23/1 300/24/1
f 301/21/1 302/22/1 303/23/1 304/24/1
f 305/21/1 306/22/1 307/23/1 308/24/1
f 309/25/1 310/26/1 311/27/1 312/28/1

