# Tiled2Unity generated file. Do not modify by hand.
# Wavefront file for 'test5_mesh_0001.obj'

# Vertices (Count = 64)
v -256 -128 0
v -320 -128 0
v -320 -64 0
v -256 -64 0
v -192 -128 0
v -256 -128 0
v -256 -64 0
v -192 -64 0
v -128 -128 0
v -192 -128 0
v -192 -64 0
v -128 -64 0
v -64 -128 0
v -128 -128 0
v -128 -64 0
v -64 -64 0
v -256 -192 0
v -320 -192 0
v -320 -128 0
v -256 -128 0
v -192 -192 0
v -256 -192 0
v -256 -128 0
v -192 -128 0
v -128 -192 0
v -192 -192 0
v -192 -128 0
v -128 -128 0
v -64 -192 0
v -128 -192 0
v -128 -128 0
v -64 -128 0
v -256 -256 0
v -320 -256 0
v -320 -192 0
v -256 -192 0
v -192 -256 0
v -256 -256 0
v -256 -192 0
v -192 -192 0
v -128 -256 0
v -192 -256 0
v -192 -192 0
v -128 -192 0
v -64 -256 0
v -128 -256 0
v -128 -192 0
v -64 -192 0
v -256 -320 0
v -320 -320 0
v -320 -256 0
v -256 -256 0
v -192 -320 0
v -256 -320 0
v -256 -256 0
v -192 -256 0
v -128 -320 0
v -192 -320 0
v -192 -256 0
v -128 -256 0
v -64 -320 0
v -128 -320 0
v -128 -256 0
v -64 -256 0

# Texture cooridinates (Count = 64)
vt 0.7558473 0.7558473
vt 0.9998779 0.7558473
vt 0.9998779 0.9998779
vt 0.7558473 0.9998779
vt 0.5039389 0.7558473
vt 0.7479695 0.7558473
vt 0.7479695 0.9998779
vt 0.5039389 0.9998779
vt 0.2520305 0.7558473
vt 0.4960611 0.7558473
vt 0.4960611 0.9998779
vt 0.2520305 0.9998779
vt 0.0001220703 0.7558473
vt 0.2441527 0.7558473
vt 0.2441527 0.9998779
vt 0.0001220703 0.9998779
vt 0.7558473 0.5039389
vt 0.9998779 0.5039389
vt 0.9998779 0.7479695
vt 0.7558473 0.7479695
vt 0.5039389 0.5039389
vt 0.7479695 0.5039389
vt 0.7479695 0.7479695
vt 0.5039389 0.7479695
vt 0.2520305 0.5039389
vt 0.4960611 0.5039389
vt 0.4960611 0.7479695
vt 0.2520305 0.7479695
vt 0.0001220703 0.5039389
vt 0.2441527 0.5039389
vt 0.2441527 0.7479695
vt 0.0001220703 0.7479695
vt 0.7558473 0.2520305
vt 0.9998779 0.2520305
vt 0.9998779 0.4960611
vt 0.7558473 0.4960611
vt 0.5039389 0.2520305
vt 0.7479695 0.2520305
vt 0.7479695 0.4960611
vt 0.5039389 0.4960611
vt 0.2520305 0.2520305
vt 0.4960611 0.2520305
vt 0.4960611 0.4960611
vt 0.2520305 0.4960611
vt 0.0001220703 0.2520305
vt 0.2441527 0.2520305
vt 0.2441527 0.4960611
vt 0.0001220703 0.4960611
vt 0.7558473 0.0001220703
vt 0.9998779 0.0001220703
vt 0.9998779 0.2441527
vt 0.7558473 0.2441527
vt 0.5039389 0.0001220703
vt 0.7479695 0.0001220703
vt 0.7479695 0.2441527
vt 0.5039389 0.2441527
vt 0.2520305 0.0001220703
vt 0.4960611 0.0001220703
vt 0.4960611 0.2441527
vt 0.2520305 0.2441527
vt 0.0001220703 0.0001220703
vt 0.2441527 0.0001220703
vt 0.2441527 0.2441527
vt 0.0001220703 0.2441527

# Normal
vn 0 0 -1

# Mesh description
g test5_mesh_0001

# Faces
f 1/1/1 2/2/1 3/3/1 4/4/1
f 5/5/1 6/6/1 7/7/1 8/8/1
f 9/9/1 10/10/1 11/11/1 12/12/1
f 13/13/1 14/14/1 15/15/1 16/16/1
f 17/17/1 18/18/1 19/19/1 20/20/1
f 21/21/1 22/22/1 23/23/1 24/24/1
f 25/25/1 26/26/1 27/27/1 28/28/1
f 29/29/1 30/30/1 31/31/1 32/32/1
f 33/33/1 34/34/1 35/35/1 36/36/1
f 37/37/1 38/38/1 39/39/1 40/40/1
f 41/41/1 42/42/1 43/43/1 44/44/1
f 45/45/1 46/46/1 47/47/1 48/48/1
f 49/49/1 50/50/1 51/51/1 52/52/1
f 53/53/1 54/54/1 55/55/1 56/56/1
f 57/57/1 58/58/1 59/59/1 60/60/1
f 61/61/1 62/62/1 63/63/1 64/64/1

