# Tiled2Unity generated file. Do not modify by hand.
# Wavefront file for 'Map005_mesh_0003.obj'

# Vertices (Count = 260)
v -1920 -768 0
v -1984 -768 0
v -1984 -704 0
v -1920 -704 0
v -1856 -768 0
v -1920 -768 0
v -1920 -704 0
v -1856 -704 0
v -1984 -832 0
v -2048 -832 0
v -2048 -768 0
v -1984 -768 0
v -1856 -832 0
v -1920 -832 0
v -1920 -768 0
v -1856 -768 0
v -1984 -896 0
v -2048 -896 0
v -2048 -832 0
v -1984 -832 0
v -960 -2112 0
v -1024 -2112 0
v -1024 -2048 0
v -960 -2048 0
v -960 -2176 0
v -1024 -2176 0
v -1024 -2112 0
v -960 -2112 0
v -1024 -2240 0
v -1088 -2240 0
v -1088 -2176 0
v -1024 -2176 0
v -960 -2240 0
v -1024 -2240 0
v -1024 -2176 0
v -960 -2176 0
v -1024 -2304 0
v -1088 -2304 0
v -1088 -2240 0
v -1024 -2240 0
v -4672 -2368 0
v -4736 -2368 0
v -4736 -2304 0
v -4672 -2304 0
v -1088 -2368 0
v -1152 -2368 0
v -1152 -2304 0
v -1088 -2304 0
v -1024 -2368 0
v -1088 -2368 0
v -1088 -2304 0
v -1024 -2304 0
v -4672 -2432 0
v -4736 -2432 0
v -4736 -2368 0
v -4672 -2368 0
v -4032 -2432 0
v -4096 -2432 0
v -4096 -2368 0
v -4032 -2368 0
v -1152 -2432 0
v -1216 -2432 0
v -1216 -2368 0
v -1152 -2368 0
v -1088 -2432 0
v -1152 -2432 0
v -1152 -2368 0
v -1088 -2368 0
v -4672 -2496 0
v -4736 -2496 0
v -4736 -2432 0
v -4672 -2432 0
v -4032 -2496 0
v -4096 -2496 0
v -4096 -2432 0
v -4032 -2432 0
v -3840 -2496 0
v -3904 -2496 0
v -3904 -2432 0
v -3840 -2432 0
v -1216 -2496 0
v -1280 -2496 0
v -1280 -2432 0
v -1216 -2432 0
v -1152 -2496 0
v -1216 -2496 0
v -1216 -2432 0
v -1152 -2432 0
v -1088 -2496 0
v -1152 -2496 0
v -1152 -2432 0
v -1088 -2432 0
v -4032 -2560 0
v -4096 -2560 0
v -4096 -2496 0
v -4032 -2496 0
v -3840 -2560 0
v -3904 -2560 0
v -3904 -2496 0
v -3840 -2496 0
v -3584 -2560 0
v -3648 -2560 0
v -3648 -2496 0
v -3584 -2496 0
v -1280 -2560 0
v -1344 -2560 0
v -1344 -2496 0
v -1280 -2496 0
v -1216 -2560 0
v -1280 -2560 0
v -1280 -2496 0
v -1216 -2496 0
v -1152 -2560 0
v -1216 -2560 0
v -1216 -2496 0
v -1152 -2496 0
v -3840 -2624 0
v -3904 -2624 0
v -3904 -2560 0
v -3840 -2560 0
v -3584 -2624 0
v -3648 -2624 0
v -3648 -2560 0
v -3584 -2560 0
v -3456 -2624 0
v -3520 -2624 0
v -3520 -2560 0
v -3456 -2560 0
v -1344 -2624 0
v -1408 -2624 0
v -1408 -2560 0
v -1344 -2560 0
v -1280 -2624 0
v -1344 -2624 0
v -1344 -2560 0
v -1280 -2560 0
v -1216 -2624 0
v -1280 -2624 0
v -1280 -2560 0
v -1216 -2560 0
v -3584 -2688 0
v -3648 -2688 0
v -3648 -2624 0
v -3584 -2624 0
v -3456 -2688 0
v -3520 -2688 0
v -3520 -2624 0
v -3456 -2624 0
v -3264 -2688 0
v -3328 -2688 0
v -3328 -2624 0
v -3264 -2624 0
v -1408 -2688 0
v -1472 -2688 0
v -1472 -2624 0
v -1408 -2624 0
v -1344 -2688 0
v -1408 -2688 0
v -1408 -2624 0
v -1344 -2624 0
v -1280 -2688 0
v -1344 -2688 0
v -1344 -2624 0
v -1280 -2624 0
v -3456 -2752 0
v -3520 -2752 0
v -3520 -2688 0
v -3456 -2688 0
v -3264 -2752 0
v -3328 -2752 0
v -3328 -2688 0
v -3264 -2688 0
v -2944 -2752 0
v -3008 -2752 0
v -3008 -2688 0
v -2944 -2688 0
v -1600 -2752 0
v -1664 -2752 0
v -1664 -2688 0
v -1600 -2688 0
v -1408 -2752 0
v -1472 -2752 0
v -1472 -2688 0
v -1408 -2688 0
v -1344 -2752 0
v -1408 -2752 0
v -1408 -2688 0
v -1344 -2688 0
v -3264 -2816 0
v -3328 -2816 0
v -3328 -2752 0
v -3264 -2752 0
v -2944 -2816 0
v -3008 -2816 0
v -3008 -2752 0
v -2944 -2752 0
v -2624 -2816 0
v -2688 -2816 0
v -2688 -2752 0
v -2624 -2752 0
v -2112 -2816 0
v -2176 -2816 0
v -2176 -2752 0
v -2112 -2752 0
v -1600 -2816 0
v -1664 -2816 0
v -1664 -2752 0
v -1600 -2752 0
v -1408 -2816 0
v -1472 -2816 0
v -1472 -2752 0
v -1408 -2752 0
v -2944 -2880 0
v -3008 -2880 0
v -3008 -2816 0
v -2944 -2816 0
v -2624 -2880 0
v -2688 -2880 0
v -2688 -2816 0
v -2624 -2816 0
v -2496 -2880 0
v -2560 -2880 0
v -2560 -2816 0
v -2496 -2816 0
v -2240 -2880 0
v -2304 -2880 0
v -2304 -2816 0
v -2240 -2816 0
v -2112 -2880 0
v -2176 -2880 0
v -2176 -2816 0
v -2112 -2816 0
v -1600 -2880 0
v -1664 -2880 0
v -1664 -2816 0
v -1600 -2816 0
v -2624 -2944 0
v -2688 -2944 0
v -2688 -2880 0
v -2624 -2880 0
v -2496 -2944 0
v -2560 -2944 0
v -2560 -2880 0
v -2496 -2880 0
v -2240 -2944 0
v -2304 -2944 0
v -2304 -2880 0
v -2240 -2880 0
v -2112 -2944 0
v -2176 -2944 0
v -2176 -2880 0
v -2112 -2880 0
v -2496 -3008 0
v -2560 -3008 0
v -2560 -2944 0
v -2496 -2944 0
v -2240 -3008 0
v -2304 -3008 0
v -2304 -2944 0
v -2240 -2944 0

# Texture cooridinates (Count = 12)
vt 0.5001221 0.6667887
vt 0.6248779 0.6667887
vt 0.6248779 0.9998779
vt 0.5001221 0.9998779
vt 0.8751221 0.6667887
vt 0.9998779 0.6667887
vt 0.9998779 0.9998779
vt 0.8751221 0.9998779
vt 0.7501221 0.0001220703
vt 0.8748779 0.0001220703
vt 0.8748779 0.3332112
vt 0.7501221 0.3332112

# Normal
vn 0 0 -1

# Mesh description
g Map005_mesh_0003

# Faces
f 1/1/1 2/2/1 3/3/1 4/4/1
f 5/5/1 6/6/1 7/7/1 8/8/1
f 9/5/1 10/6/1 11/7/1 12/8/1
f 13/9/1 14/10/1 15/11/1 16/12/1
f 17/5/1 18/6/1 19/7/1 20/8/1
f 21/5/1 22/6/1 23/7/1 24/8/1
f 25/5/1 26/6/1 27/7/1 28/8/1
f 29/5/1 30/6/1 31/7/1 32/8/1
f 33/9/1 34/10/1 35/11/1 36/12/1
f 37/5/1 38/6/1 39/7/1 40/8/1
f 41/5/1 42/6/1 43/7/1 44/8/1
f 45/5/1 46/6/1 47/7/1 48/8/1
f 49/9/1 50/10/1 51/11/1 52/12/1
f 53/5/1 54/6/1 55/7/1 56/8/1
f 57/5/1 58/6/1 59/7/1 60/8/1
f 61/5/1 62/6/1 63/7/1 64/8/1
f 65/5/1 66/6/1 67/7/1 68/8/1
f 69/5/1 70/6/1 71/7/1 72/8/1
f 73/5/1 74/6/1 75/7/1 76/8/1
f 77/5/1 78/6/1 79/7/1 80/8/1
f 81/5/1 82/6/1 83/7/1 84/8/1
f 85/5/1 86/6/1 87/7/1 88/8/1
f 89/9/1 90/10/1 91/11/1 92/12/1
f 93/9/1 94/10/1 95/11/1 96/12/1
f 97/5/1 98/6/1 99/7/1 100/8/1
f 101/5/1 102/6/1 103/7/1 104/8/1
f 105/5/1 106/6/1 107/7/1 108/8/1
f 109/5/1 110/6/1 111/7/1 112/8/1
f 113/9/1 114/10/1 115/11/1 116/12/1
f 117/9/1 118/10/1 119/11/1 120/12/1
f 121/5/1 122/6/1 123/7/1 124/8/1
f 125/5/1 126/6/1 127/7/1 128/8/1
f 129/5/1 130/6/1 131/7/1 132/8/1
f 133/5/1 134/6/1 135/7/1 136/8/1
f 137/9/1 138/10/1 139/11/1 140/12/1
f 141/9/1 142/10/1 143/11/1 144/12/1
f 145/5/1 146/6/1 147/7/1 148/8/1
f 149/5/1 150/6/1 151/7/1 152/8/1
f 153/5/1 154/6/1 155/7/1 156/8/1
f 157/5/1 158/6/1 159/7/1 160/8/1
f 161/9/1 162/10/1 163/11/1 164/12/1
f 165/9/1 166/10/1 167/11/1 168/12/1
f 169/5/1 170/6/1 171/7/1 172/8/1
f 173/5/1 174/6/1 175/7/1 176/8/1
f 177/5/1 178/6/1 179/7/1 180/8/1
f 181/5/1 182/6/1 183/7/1 184/8/1
f 185/9/1 186/10/1 187/11/1 188/12/1
f 189/9/1 190/10/1 191/11/1 192/12/1
f 193/5/1 194/6/1 195/7/1 196/8/1
f 197/5/1 198/6/1 199/7/1 200/8/1
f 201/5/1 202/6/1 203/7/1 204/8/1
f 205/5/1 206/6/1 207/7/1 208/8/1
f 209/9/1 210/10/1 211/11/1 212/12/1
f 213/9/1 214/10/1 215/11/1 216/12/1
f 217/5/1 218/6/1 219/7/1 220/8/1
f 221/5/1 222/6/1 223/7/1 224/8/1
f 225/5/1 226/6/1 227/7/1 228/8/1
f 229/5/1 230/6/1 231/7/1 232/8/1
f 233/9/1 234/10/1 235/11/1 236/12/1
f 237/9/1 238/10/1 239/11/1 240/12/1
f 241/5/1 242/6/1 243/7/1 244/8/1
f 245/5/1 246/6/1 247/7/1 248/8/1
f 249/9/1 250/10/1 251/11/1 252/12/1
f 253/9/1 254/10/1 255/11/1 256/12/1
f 257/9/1 258/10/1 259/11/1 260/12/1

