# Tiled2Unity generated file. Do not modify by hand.
# Wavefront file for 'Map003_mesh_0004.obj'

# Vertices (Count = 16)
v -64 -64 0
v -128 -64 0
v -128 0 0
v -64 0 0
v 0 -64 0
v -64 -64 0
v -64 0 0
v 0 0 0
v -64 -128 0
v -128 -128 0
v -128 -64 0
v -64 -64 0
v 0 -128 0
v -64 -128 0
v -64 -64 0
v 0 -64 0

# Texture cooridinates (Count = 16)
vt 0.7501221 0.6667887
vt 0.8748779 0.6667887
vt 0.8748779 0.9998779
vt 0.7501221 0.9998779
vt 0.8751221 0.6667887
vt 0.9998779 0.6667887
vt 0.9998779 0.9998779
vt 0.8751221 0.9998779
vt 0.7501221 0.3334554
vt 0.8748779 0.3334554
vt 0.8748779 0.6665446
vt 0.7501221 0.6665446
vt 0.7501221 0.0001220703
vt 0.8748779 0.0001220703
vt 0.8748779 0.3332112
vt 0.7501221 0.3332112

# Normal
vn 0 0 -1

# Mesh description
g Map003_mesh_0004

# Faces
f 1/1/1 2/2/1 3/3/1 4/4/1
f 5/5/1 6/6/1 7/7/1 8/8/1
f 9/9/1 10/10/1 11/11/1 12/12/1
f 13/13/1 14/14/1 15/15/1 16/16/1

