# Tiled2Unity generated file. Do not modify by hand.
# Wavefront file for 'test2_mesh_0001.obj'

# Vertices (Count = 316)
v 0 -64 0
v -64 -64 0
v -64 0 0
v 0 0 0
v 0 -192 0
v -64 -192 0
v -64 -128 0
v 0 -128 0
v 0 -320 0
v -64 -320 0
v -64 -256 0
v 0 -256 0
v -896 -384 0
v -960 -384 0
v -960 -320 0
v -896 -320 0
v -832 -384 0
v -896 -384 0
v -896 -320 0
v -832 -320 0
v -768 -384 0
v -832 -384 0
v -832 -320 0
v -768 -320 0
v -704 -384 0
v -768 -384 0
v -768 -320 0
v -704 -320 0
v -640 -384 0
v -704 -384 0
v -704 -320 0
v -640 -320 0
v -576 -384 0
v -640 -384 0
v -640 -320 0
v -576 -320 0
v -512 -384 0
v -576 -384 0
v -576 -320 0
v -512 -320 0
v -448 -384 0
v -512 -384 0
v -512 -320 0
v -448 -320 0
v -384 -384 0
v -448 -384 0
v -448 -320 0
v -384 -320 0
v -320 -384 0
v -384 -384 0
v -384 -320 0
v -320 -320 0
v -256 -384 0
v -320 -384 0
v -320 -320 0
v -256 -320 0
v -896 -448 0
v -960 -448 0
v -960 -384 0
v -896 -384 0
v -832 -448 0
v -896 -448 0
v -896 -384 0
v -832 -384 0
v -768 -448 0
v -832 -448 0
v -832 -384 0
v -768 -384 0
v -704 -448 0
v -768 -448 0
v -768 -384 0
v -704 -384 0
v -640 -448 0
v -704 -448 0
v -704 -384 0
v -640 -384 0
v -576 -448 0
v -640 -448 0
v -640 -384 0
v -576 -384 0
v -512 -448 0
v -576 -448 0
v -576 -384 0
v -512 -384 0
v -448 -448 0
v -512 -448 0
v -512 -384 0
v -448 -384 0
v -384 -448 0
v -448 -448 0
v -448 -384 0
v -384 -384 0
v -320 -448 0
v -384 -448 0
v -384 -384 0
v -320 -384 0
v -256 -448 0
v -320 -448 0
v -320 -384 0
v -256 -384 0
v 0 -448 0
v -64 -448 0
v -64 -384 0
v 0 -384 0
v -896 -512 0
v -960 -512 0
v -960 -448 0
v -896 -448 0
v -832 -512 0
v -896 -512 0
v -896 -448 0
v -832 -448 0
v -768 -512 0
v -832 -512 0
v -832 -448 0
v -768 -448 0
v -704 -512 0
v -768 -512 0
v -768 -448 0
v -704 -448 0
v -640 -512 0
v -704 -512 0
v -704 -448 0
v -640 -448 0
v -576 -512 0
v -640 -512 0
v -640 -448 0
v -576 -448 0
v -512 -512 0
v -576 -512 0
v -576 -448 0
v -512 -448 0
v -448 -512 0
v -512 -512 0
v -512 -448 0
v -448 -448 0
v -384 -512 0
v -448 -512 0
v -448 -448 0
v -384 -448 0
v -320 -512 0
v -384 -512 0
v -384 -448 0
v -320 -448 0
v -256 -512 0
v -320 -512 0
v -320 -448 0
v -256 -448 0
v -896 -576 0
v -960 -576 0
v -960 -512 0
v -896 -512 0
v -832 -576 0
v -896 -576 0
v -896 -512 0
v -832 -512 0
v -768 -576 0
v -832 -576 0
v -832 -512 0
v -768 -512 0
v -704 -576 0
v -768 -576 0
v -768 -512 0
v -704 -512 0
v -640 -576 0
v -704 -576 0
v -704 -512 0
v -640 -512 0
v -576 -576 0
v -640 -576 0
v -640 -512 0
v -576 -512 0
v -512 -576 0
v -576 -576 0
v -576 -512 0
v -512 -512 0
v -448 -576 0
v -512 -576 0
v -512 -512 0
v -448 -512 0
v -384 -576 0
v -448 -576 0
v -448 -512 0
v -384 -512 0
v -320 -576 0
v -384 -576 0
v -384 -512 0
v -320 -512 0
v -256 -576 0
v -320 -576 0
v -320 -512 0
v -256 -512 0
v 0 -576 0
v -64 -576 0
v -64 -512 0
v 0 -512 0
v -896 -640 0
v -960 -640 0
v -960 -576 0
v -896 -576 0
v -832 -640 0
v -896 -640 0
v -896 -576 0
v -832 -576 0
v -768 -640 0
v -832 -640 0
v -832 -576 0
v -768 -576 0
v -704 -640 0
v -768 -640 0
v -768 -576 0
v -704 -576 0
v -640 -640 0
v -704 -640 0
v -704 -576 0
v -640 -576 0
v -576 -640 0
v -640 -640 0
v -640 -576 0
v -576 -576 0
v -512 -640 0
v -576 -640 0
v -576 -576 0
v -512 -576 0
v -448 -640 0
v -512 -640 0
v -512 -576 0
v -448 -576 0
v -384 -640 0
v -448 -640 0
v -448 -576 0
v -384 -576 0
v -320 -640 0
v -384 -640 0
v -384 -576 0
v -320 -576 0
v -256 -640 0
v -320 -640 0
v -320 -576 0
v -256 -576 0
v -896 -704 0
v -960 -704 0
v -960 -640 0
v -896 -640 0
v -832 -704 0
v -896 -704 0
v -896 -640 0
v -832 -640 0
v -768 -704 0
v -832 -704 0
v -832 -640 0
v -768 -640 0
v -704 -704 0
v -768 -704 0
v -768 -640 0
v -704 -640 0
v -640 -704 0
v -704 -704 0
v -704 -640 0
v -640 -640 0
v -576 -704 0
v -640 -704 0
v -640 -640 0
v -576 -640 0
v -512 -704 0
v -576 -704 0
v -576 -640 0
v -512 -640 0
v -448 -704 0
v -512 -704 0
v -512 -640 0
v -448 -640 0
v -384 -704 0
v -448 -704 0
v -448 -640 0
v -384 -640 0
v -320 -704 0
v -384 -704 0
v -384 -640 0
v -320 -640 0
v -256 -704 0
v -320 -704 0
v -320 -640 0
v -256 -640 0
v 0 -704 0
v -64 -704 0
v -64 -640 0
v 0 -640 0
v 0 -832 0
v -64 -832 0
v -64 -768 0
v 0 -768 0
v 0 -960 0
v -64 -960 0
v -64 -896 0
v 0 -896 0
v 0 -1088 0
v -64 -1088 0
v -64 -1024 0
v 0 -1024 0
v 0 -1216 0
v -64 -1216 0
v -64 -1152 0
v 0 -1152 0
v -384 -1280 0
v -448 -1280 0
v -448 -1216 0
v -384 -1216 0
v -256 -1280 0
v -320 -1280 0
v -320 -1216 0
v -256 -1216 0
v -128 -1280 0
v -192 -1280 0
v -192 -1216 0
v -128 -1216 0

# Texture cooridinates (Count = 64)
vt 0.0001220703 0.7558473
vt 0.2441527 0.7558473
vt 0.2441527 0.9998779
vt 0.0001220703 0.9998779
vt 0.0001220703 0.5039389
vt 0.2441527 0.5039389
vt 0.2441527 0.7479695
vt 0.0001220703 0.7479695
vt 0.0001220703 0.2520305
vt 0.2441527 0.2520305
vt 0.2441527 0.4960611
vt 0.0001220703 0.4960611
vt 0.2520305 0.5039389
vt 0.4960611 0.5039389
vt 0.4960611 0.7479695
vt 0.2520305 0.7479695
vt 0.5039389 0.2520305
vt 0.7479695 0.2520305
vt 0.7479695 0.4960611
vt 0.5039389 0.4960611
vt 0.0001220703 0.0001220703
vt 0.2441527 0.0001220703
vt 0.2441527 0.2441527
vt 0.0001220703 0.2441527
vt 0.5039389 0.5039389
vt 0.7479695 0.5039389
vt 0.7479695 0.7479695
vt 0.5039389 0.7479695
vt 0.2520305 0.2520305
vt 0.4960611 0.2520305
vt 0.4960611 0.4960611
vt 0.2520305 0.4960611
vt 0.2520305 0.0001220703
vt 0.4960611 0.0001220703
vt 0.4960611 0.2441527
vt 0.2520305 0.2441527
vt 0.5039389 0.0001220703
vt 0.7479695 0.0001220703
vt 0.7479695 0.2441527
vt 0.5039389 0.2441527
vt 0.7558473 0.0001220703
vt 0.9998779 0.0001220703
vt 0.9998779 0.2441527
vt 0.7558473 0.2441527
vt 0.7558473 0.2520305
vt 0.9998779 0.2520305
vt 0.9998779 0.4960611
vt 0.7558473 0.4960611
vt 0.7558473 0.5039389
vt 0.9998779 0.5039389
vt 0.9998779 0.7479695
vt 0.7558473 0.7479695
vt 0.7558473 0.7558473
vt 0.9998779 0.7558473
vt 0.9998779 0.9998779
vt 0.7558473 0.9998779
vt 0.5039389 0.7558473
vt 0.7479695 0.7558473
vt 0.7479695 0.9998779
vt 0.5039389 0.9998779
vt 0.2520305 0.7558473
vt 0.4960611 0.7558473
vt 0.4960611 0.9998779
vt 0.2520305 0.9998779

# Normal
vn 0 0 -1

# Mesh description
g test2_mesh_0001

# Faces
f 1/1/1 2/2/1 3/3/1 4/4/1
f 5/5/1 6/6/1 7/7/1 8/8/1
f 9/9/1 10/10/1 11/11/1 12/12/1
f 13/13/1 14/14/1 15/15/1 16/16/1
f 17/13/1 18/14/1 19/15/1 20/16/1
f 21/13/1 22/14/1 23/15/1 24/16/1
f 25/13/1 26/14/1 27/15/1 28/16/1
f 29/13/1 30/14/1 31/15/1 32/16/1
f 33/17/1 34/18/1 35/19/1 36/20/1
f 37/17/1 38/18/1 39/19/1 40/20/1
f 41/17/1 42/18/1 43/19/1 44/20/1
f 45/13/1 46/14/1 47/15/1 48/16/1
f 49/13/1 50/14/1 51/15/1 52/16/1
f 53/13/1 54/14/1 55/15/1 56/16/1
f 57/13/1 58/14/1 59/15/1 60/16/1
f 61/13/1 62/14/1 63/15/1 64/16/1
f 65/13/1 66/14/1 67/15/1 68/16/1
f 69/13/1 70/14/1 71/15/1 72/16/1
f 73/13/1 74/14/1 75/15/1 76/16/1
f 77/17/1 78/18/1 79/19/1 80/20/1
f 81/17/1 82/18/1 83/19/1 84/20/1
f 85/17/1 86/18/1 87/19/1 88/20/1
f 89/13/1 90/14/1 91/15/1 92/16/1
f 93/13/1 94/14/1 95/15/1 96/16/1
f 97/13/1 98/14/1 99/15/1 100/16/1
f 101/21/1 102/22/1 103/23/1 104/24/1
f 105/13/1 106/14/1 107/15/1 108/16/1
f 109/13/1 110/14/1 111/15/1 112/16/1
f 113/13/1 114/14/1 115/15/1 116/16/1
f 117/13/1 118/14/1 119/15/1 120/16/1
f 121/13/1 122/14/1 123/15/1 124/16/1
f 125/25/1 126/26/1 127/27/1 128/28/1
f 129/17/1 130/18/1 131/19/1 132/20/1
f 133/17/1 134/18/1 135/19/1 136/20/1
f 137/13/1 138/14/1 139/15/1 140/16/1
f 141/13/1 142/14/1 143/15/1 144/16/1
f 145/13/1 146/14/1 147/15/1 148/16/1
f 149/13/1 150/14/1 151/15/1 152/16/1
f 153/13/1 154/14/1 155/15/1 156/16/1
f 157/13/1 158/14/1 159/15/1 160/16/1
f 161/13/1 162/14/1 163/15/1 164/16/1
f 165/13/1 166/14/1 167/15/1 168/16/1
f 169/25/1 170/26/1 171/27/1 172/28/1
f 173/25/1 174/26/1 175/27/1 176/28/1
f 177/25/1 178/26/1 179/27/1 180/28/1
f 181/29/1 182/30/1 183/31/1 184/32/1
f 185/29/1 186/30/1 187/31/1 188/32/1
f 189/29/1 190/30/1 191/31/1 192/32/1
f 193/33/1 194/34/1 195/35/1 196/36/1
f 197/13/1 198/14/1 199/15/1 200/16/1
f 201/13/1 202/14/1 203/15/1 204/16/1
f 205/13/1 206/14/1 207/15/1 208/16/1
f 209/13/1 210/14/1 211/15/1 212/16/1
f 213/13/1 214/14/1 215/15/1 216/16/1
f 217/25/1 218/26/1 219/27/1 220/28/1
f 221/25/1 222/26/1 223/27/1 224/28/1
f 225/25/1 226/26/1 227/27/1 228/28/1
f 229/29/1 230/30/1 231/31/1 232/32/1
f 233/29/1 234/30/1 235/31/1 236/32/1
f 237/29/1 238/30/1 239/31/1 240/32/1
f 241/13/1 242/14/1 243/15/1 244/16/1
f 245/13/1 246/14/1 247/15/1 248/16/1
f 249/13/1 250/14/1 251/15/1 252/16/1
f 253/13/1 254/14/1 255/15/1 256/16/1
f 257/13/1 258/14/1 259/15/1 260/16/1
f 261/25/1 262/26/1 263/27/1 264/28/1
f 265/25/1 266/26/1 267/27/1 268/28/1
f 269/25/1 270/26/1 271/27/1 272/28/1
f 273/29/1 274/30/1 275/31/1 276/32/1
f 277/29/1 278/30/1 279/31/1 280/32/1
f 281/29/1 282/30/1 283/31/1 284/32/1
f 285/37/1 286/38/1 287/39/1 288/40/1
f 289/41/1 290/42/1 291/43/1 292/44/1
f 293/45/1 294/46/1 295/47/1 296/48/1
f 297/49/1 298/50/1 299/51/1 300/52/1
f 301/53/1 302/54/1 303/55/1 304/56/1
f 305/57/1 306/58/1 307/59/1 308/60/1
f 309/61/1 310/62/1 311/63/1 312/64/1
f 313/1/1 314/2/1 315/3/1 316/4/1

